<svg width="64" height="96" viewBox="0 0 64 96" fill="none" xmlns="http://www.w3.org/2000/svg">
<path d="M3.78503 9.48994C3.49267 5.99135 6.2534 2.9903 9.76419 2.9903H55.3735C58.8843 2.9903 61.6451 5.99135 61.3527 9.48995L54.3438 93.3627H10.7939L3.78503 9.48994Z" fill="white"/>
<path d="M8.72821 11.0731H60.1965L54.6181 77.5632H15.2916L8.72821 11.0731Z" fill="#FFA549"/>
<path fill-rule="evenodd" clip-rule="evenodd" d="M55.5666 94.3088H8.4329L0.990217 5.24466C0.798225 2.94716 2.61117 0.976379 4.91669 0.976379H59.0828C61.3884 0.976379 63.2013 2.94715 63.0093 5.24465L55.5666 94.3088ZM10.6983 91.8462H53.3012L60.5553 5.03958C60.6273 4.17802 59.9474 3.43898 59.0828 3.43898H4.91669C4.05212 3.43898 3.37226 4.17802 3.44426 5.03958L10.6983 91.8462Z" fill="black"/>
<path fill-rule="evenodd" clip-rule="evenodd" d="M56.4649 95.2853H7.53466L0.0171746 5.32601C-0.222395 2.45917 2.03982 0 4.91668 0H59.0828C61.9597 0 64.2219 2.45915 63.9823 5.32601L56.4649 95.2853ZM55.5666 94.3089H8.43289L0.990205 5.2447C0.798213 2.9472 2.61116 0.976422 4.91668 0.976422H59.0828C61.3884 0.976422 63.2013 2.94719 63.0093 5.2447L55.5666 94.3089ZM52.403 90.8699L59.5822 4.95831C59.6067 4.6661 59.3761 4.41544 59.0828 4.41544H4.91668C4.62345 4.41544 4.39286 4.6661 4.41728 4.95831L11.5965 90.8699H52.403ZM10.6983 91.8463H53.3012L60.5553 5.03962C60.6273 4.17806 59.9474 3.43902 59.0828 3.43902H4.91668C4.05211 3.43902 3.37225 4.17806 3.44425 5.03962L10.6983 91.8463Z" fill="white"/>
<path d="M42.4658 22.2779C42.3673 8.97985 45.6261 8.28212 47.2679 9.5955C50.0178 9.5955 55.5176 5.40908 53.4244 17.8452C52.2942 24.5597 49.6074 60.7354 48.7454 78.0557H42.4658C42.5068 65.0039 42.5643 35.5759 42.4658 22.2779Z" fill="white"/>
<path fill-rule="evenodd" clip-rule="evenodd" d="M60.4428 12.0581L19.5637 12.0581L19.5637 9.59552L60.4428 9.59552L60.4428 12.0581Z" fill="black"/>
<ellipse cx="14.1459" cy="15.752" rx="7.63405" ry="8.86535" fill="white"/>
<circle cx="33.1079" cy="17.4211" r="1.2313" fill="white"/>
<circle cx="41.4808" cy="27.3262" r="1.2313" fill="white"/>
<circle cx="36.3094" cy="28.8037" r="1.2313" fill="white"/>
<circle cx="42.7121" cy="40.1317" r="1.2313" fill="white"/>
<circle cx="26.459" cy="33.9752" r="1.2313" fill="white"/>
<circle cx="21.5337" cy="25.3288" r="1.2313" fill="white"/>
<circle cx="19.0711" cy="38.9004" r="1.2313" fill="white"/>
<circle cx="31.3841" cy="46.2882" r="1.2313" fill="white"/>
<circle cx="38.7719" cy="53.676" r="1.2313" fill="white"/>
<circle cx="48.8686" cy="73.3767" r="1.2313" fill="white"/>
<circle cx="53.7938" cy="61.0638" r="1.2313" fill="white"/>
<circle cx="53.7938" cy="43.8256" r="1.2313" fill="white"/>
<circle cx="41.9733" cy="63.8274" r="1.2313" fill="white"/>
<circle cx="24.9814" cy="61.31" r="1.2313" fill="white"/>
<circle cx="17.5936" cy="71.1604" r="1.2313" fill="white"/>
<circle cx="34.8318" cy="68.6979" r="1.2313" fill="white"/>
<circle cx="13.4071" cy="53.9223" r="1.2313" fill="white"/>
<path fill-rule="evenodd" clip-rule="evenodd" d="M55.2713 80.0258L9.2207 80.0258L9.2207 77.5632L55.2713 77.5632L55.2713 80.0258Z" fill="black"/>
<path d="M20.7336 33.4479C30.2938 26.2418 40.5816 26.9522 44.5305 28.2082L46.7373 29.9323L50.3172 36.3877L51.5524 41.4292L50.6831 47.492L48.254 54.9492L44.8727 53.4573L44.3402 54.1388L41.1749 59.6619L37.0714 61.3687L33.3982 56.3038L29.7775 58.5968L21.7249 60.8765C19.1911 55.3431 22.4182 47.7253 23.8408 44.6557L15.8501 43.3777C19.8558 37.7689 23.387 35.7823 25.5296 35.4703C23.838 34.9152 20.5105 33.7335 20.7336 33.4479Z" fill="#44B848"/>
<path fill-rule="evenodd" clip-rule="evenodd" d="M46.0876 27.4316C45.8391 27.2066 45.5682 26.9792 45.2758 26.7525C44.9851 26.5237 44.699 26.3158 44.4205 26.1292L44.4184 26.1323C42.0024 24.501 38.4939 23.037 34.2969 22.8325C28.9535 22.572 22.5947 24.3577 16.0532 30.2381L15.0685 31.1232L16.0195 32.0444C16.4883 32.4985 17.1026 33.0114 17.8394 33.5314C15.658 34.7788 12.8096 37.6748 11.8768 42.8757L11.7414 43.6306L12.3579 44.0869C13.3171 44.7968 15.3097 45.6234 18.2091 45.8992C16.6648 49.5463 15.2072 56.0575 17.6296 62.1716C24.1472 63.0427 30.0887 60.0362 33.2468 57.6499C34.2158 60.3949 35.4994 62.1275 36.4199 62.8862L37.0118 63.374L37.7115 63.06C42.5323 60.8967 44.6532 57.4323 45.3357 55.0139C46.0186 55.603 46.6649 56.075 47.2189 56.42L48.3428 57.1199L48.9634 55.9504C53.0866 48.1806 53.2809 41.5786 51.7355 36.457C50.5217 32.4341 48.2524 29.384 46.085 27.4344L46.0876 27.4316ZM32.5147 55.0733C32.3363 54.2685 32.1877 53.4036 32.0784 52.4781C29.781 53.4491 27.3276 53.9935 24.7179 53.2327C23.3435 50.8763 23.1949 48.2861 23.5394 45.7774C22.603 45.8979 21.7171 45.9641 20.8834 45.986C19.4893 48.6914 17.7328 54.3397 19.4125 59.8561C25.1714 60.1513 30.2269 57.0806 32.5147 55.0733ZM33.369 49.1067C31.1259 50.3039 28.7358 51.0338 26.4718 50.8205C25.7172 48.6754 25.8472 46.1797 26.4662 43.7136C27.1268 41.0818 28.3056 38.6476 29.299 37.0336C29.6054 37.0152 29.9142 36.9873 30.225 36.9492C29.8224 38.9819 29.7708 41.8872 31.0159 44.9706L31.0544 44.9551L31.0487 44.9962C34.3417 45.4584 37.1482 44.7055 39.0231 43.823C39.0614 44.1339 39.109 44.4402 39.1653 44.742C37.8395 46.0964 35.7629 47.829 33.369 49.1067ZM34.5325 51.2866C36.6372 50.1633 38.5061 48.7357 39.9267 47.4388C40.4641 48.8517 41.1733 50.1278 41.9503 51.2488C42.347 51.8212 42.7636 52.3564 43.1877 52.8524C42.8908 54.507 41.4554 58.3688 37.4712 60.4333C36.4681 59.1957 34.8647 56.2671 34.4454 51.333C34.4745 51.3176 34.5035 51.3021 34.5325 51.2866ZM34.1766 25.3006C38.3556 25.5042 41.7262 27.1281 43.7546 28.6996C45.7701 30.2876 48.1612 33.1652 49.3698 37.1708C50.6325 41.3555 50.6304 46.8572 47.4184 53.5318C46.3528 52.6824 45.0822 51.4298 43.9811 49.8412C42.468 47.6581 41.3171 44.9039 41.3855 41.7347L41.4434 39.0565L39.3687 40.7511C38.5587 41.4128 36.1117 42.7204 32.8447 42.6636C31.9992 39.5074 32.676 36.8168 33.1221 35.8707L34.2645 33.4477L31.6798 34.1518C28.6213 34.9849 25.6705 34.5345 23.1862 33.5944C21.3784 32.9103 19.8556 31.9806 18.7737 31.1521C24.473 26.4208 29.8107 25.0878 34.1766 25.3006ZM24.0695 43.1121C24.0615 43.1439 24.0536 43.1758 24.0457 43.2077C19.1567 43.9947 15.9272 43.1474 14.4836 42.4734C15.6128 37.7307 19.0082 35.4391 20.2684 34.9977C20.9065 35.3246 21.59 35.6324 22.3117 35.9055C23.5873 36.3882 24.9971 36.7676 26.4981 36.9472C25.5834 38.6393 24.6503 40.7981 24.0695 43.1121Z" fill="black"/>
</svg>
