<svg width="280" height="396" viewBox="0 0 280 396" fill="none" xmlns="http://www.w3.org/2000/svg">
<path fill-rule="evenodd" clip-rule="evenodd" d="M23.1579 6.3158C21.4138 6.3158 20 7.72964 20 9.4737V386.316C20 388.06 21.4138 389.474 23.1579 389.474H255.789C257.534 389.474 258.947 388.06 258.947 386.316V9.47369C258.947 7.72963 257.534 6.3158 255.789 6.3158H23.1579ZM146.316 26.3158C137.596 26.3158 130.526 33.385 130.526 42.1053C130.526 50.8256 137.596 57.8947 146.316 57.8947H217.895C226.615 57.8947 233.684 50.8256 233.684 42.1053C233.684 33.385 226.615 26.3158 217.895 26.3158H146.316Z" fill="#78787A"/>
<path fill-rule="evenodd" clip-rule="evenodd" d="M13.6842 9.47369C13.6842 4.24153 17.9257 0 23.1579 0H255.789C261.022 0 265.263 4.24152 265.263 9.47368V386.316C265.263 391.548 261.022 395.789 255.789 395.789H23.1579C17.9257 395.789 13.6842 391.548 13.6842 386.316V9.47369ZM146.316 32.6316C141.084 32.6316 136.842 36.8731 136.842 42.1053C136.842 47.3374 141.084 51.5789 146.316 51.5789H217.895C223.127 51.5789 227.368 47.3374 227.368 42.1053C227.368 36.8731 223.127 32.6316 217.895 32.6316H146.316ZM20 9.47369C20 7.72963 21.4138 6.31579 23.1579 6.31579H255.789C257.534 6.31579 258.947 7.72963 258.947 9.47368V386.316C258.947 388.06 257.534 389.474 255.789 389.474H23.1579C21.4138 389.474 20 388.06 20 386.316V9.47369ZM130.526 42.1053C130.526 33.385 137.596 26.3158 146.316 26.3158H217.895C226.615 26.3158 233.684 33.385 233.684 42.1053C233.684 50.8255 226.615 57.8947 217.895 57.8947H146.316C137.596 57.8947 130.526 50.8255 130.526 42.1053Z" fill="black"/>
<path fill-rule="evenodd" clip-rule="evenodd" d="M258.947 6.3158H211.579V26.3158H217.895C226.615 26.3158 233.684 33.385 233.684 42.1053C233.684 50.8255 226.615 57.8947 217.895 57.8947H211.579V389.474H258.947V6.3158Z" fill="#505052"/>
<rect x="36.8421" y="6.3158" width="58.9474" height="383.158" fill="#BDBBBB"/>
<rect x="107.368" y="6.3158" width="13.6842" height="383.158" fill="#BDBBBB"/>
<path fill-rule="evenodd" clip-rule="evenodd" d="M31.5789 11.0526C31.5789 10.1806 32.2858 9.47369 33.1579 9.47369H98.421C99.2931 9.47369 100 10.1806 100 11.0526C100 11.9247 99.2931 12.6316 98.421 12.6316H33.1579C32.2858 12.6316 31.5789 11.9247 31.5789 11.0526Z" fill="white"/>
<path fill-rule="evenodd" clip-rule="evenodd" d="M126.316 11.0526C126.316 10.1806 127.023 9.47369 127.895 9.47369H159.474C160.346 9.47369 161.053 10.1806 161.053 11.0526C161.053 11.9247 160.346 12.6316 159.474 12.6316H127.895C127.023 12.6316 126.316 11.9247 126.316 11.0526Z" fill="white"/>
<path fill-rule="evenodd" clip-rule="evenodd" d="M25.7895 63.1579C24.9174 63.1579 24.2105 62.451 24.2105 61.579L24.2105 11.0526C24.2105 10.1806 24.9174 9.47369 25.7895 9.47369C26.6615 9.47369 27.3684 10.1806 27.3684 11.0526L27.3684 61.579C27.3684 62.451 26.6615 63.1579 25.7895 63.1579Z" fill="white"/>
<path fill-rule="evenodd" clip-rule="evenodd" d="M25.7895 378.947C24.9174 378.947 24.2105 378.24 24.2105 377.368L24.2105 348.947C24.2105 348.075 24.9174 347.368 25.7895 347.368C26.6615 347.368 27.3684 348.075 27.3684 348.947L27.3684 377.368C27.3684 378.24 26.6615 378.947 25.7895 378.947Z" fill="white"/>
<path fill-rule="evenodd" clip-rule="evenodd" d="M25.7895 262.105C24.9174 262.105 24.2105 261.398 24.2105 260.526L24.2105 140.526C24.2105 139.654 24.9174 138.947 25.7895 138.947C26.6615 138.947 27.3684 139.654 27.3684 140.526L27.3684 260.526C27.3684 261.398 26.6615 262.105 25.7895 262.105Z" fill="white"/>
<path d="M6.3158 83.1579C6.3158 81.4138 7.72963 80 9.47369 80H270.526C272.27 80 273.684 81.4138 273.684 83.1579V108.421C273.684 110.165 272.27 111.579 270.526 111.579H9.47369C7.72963 111.579 6.3158 110.165 6.3158 108.421V83.1579Z" fill="#78787A"/>
<path fill-rule="evenodd" clip-rule="evenodd" d="M9.47368 73.6842H270.526C275.759 73.6842 280 77.9257 280 83.1579V108.421C280 113.653 275.759 117.895 270.526 117.895H9.47368C4.24151 117.895 0 113.653 0 108.421V83.1579C0 77.9257 4.24151 73.6842 9.47368 73.6842ZM9.47368 80C7.72963 80 6.31579 81.4138 6.31579 83.1579V108.421C6.31579 110.165 7.72963 111.579 9.47368 111.579H270.526C272.27 111.579 273.684 110.165 273.684 108.421V83.1579C273.684 81.4138 272.27 80 270.526 80H9.47368Z" fill="black"/>
<rect x="89.4737" y="80" width="10.5263" height="31.5789" fill="#BDBBBB"/>
<rect x="41.0526" y="80" width="35.7895" height="31.5789" fill="#BDBBBB"/>
<path d="M218.947 80H270.684C272.341 80 273.684 81.3431 273.684 83V108.579C273.684 110.236 272.341 111.579 270.684 111.579H218.947V80Z" fill="#505052"/>
<path fill-rule="evenodd" clip-rule="evenodd" d="M17.3684 87.3684C17.0777 87.3684 16.8421 87.6041 16.8421 87.8948V102.632C16.8421 103.504 16.1352 104.211 15.2632 104.211C14.3911 104.211 13.6842 103.504 13.6842 102.632V87.8948C13.6842 85.86 15.3337 84.2105 17.3684 84.2105H45.2632C46.1352 84.2105 46.8421 84.9175 46.8421 85.7895C46.8421 86.6615 46.1352 87.3684 45.2632 87.3684H17.3684Z" fill="white"/>
<path fill-rule="evenodd" clip-rule="evenodd" d="M64.2105 85.7895C64.2105 84.9175 64.9174 84.2105 65.7895 84.2105H192.105C192.977 84.2105 193.684 84.9175 193.684 85.7895C193.684 86.6615 192.977 87.3684 192.105 87.3684H65.7895C64.9174 87.3684 64.2105 86.6615 64.2105 85.7895Z" fill="white"/>
<path d="M6.3158 302.105C6.3158 300.361 7.72963 298.947 9.47369 298.947H270.526C272.27 298.947 273.684 300.361 273.684 302.105V327.368C273.684 329.112 272.27 330.526 270.526 330.526H9.47369C7.72963 330.526 6.3158 329.112 6.3158 327.368V302.105Z" fill="#78787A"/>
<path fill-rule="evenodd" clip-rule="evenodd" d="M9.47368 292.632H270.526C275.759 292.632 280 296.873 280 302.105V327.368C280 332.601 275.759 336.842 270.526 336.842H9.47368C4.24151 336.842 0 332.601 0 327.368V302.105C0 296.873 4.24151 292.632 9.47368 292.632ZM9.47368 298.947C7.72963 298.947 6.31579 300.361 6.31579 302.105V327.368C6.31579 329.112 7.72963 330.526 9.47368 330.526H270.526C272.27 330.526 273.684 329.112 273.684 327.368V302.105C273.684 300.361 272.27 298.947 270.526 298.947H9.47368Z" fill="black"/>
<rect x="89.4737" y="298.947" width="10.5263" height="31.5789" fill="#BDBBBB"/>
<rect x="41.0526" y="298.947" width="35.7895" height="31.5789" fill="#BDBBBB"/>
<path d="M218.947 298.947H270.684C272.341 298.947 273.684 300.291 273.684 301.947V327.526C273.684 329.183 272.341 330.526 270.684 330.526H218.947V298.947Z" fill="#505052"/>
<path fill-rule="evenodd" clip-rule="evenodd" d="M17.3684 306.316C17.0777 306.316 16.8421 306.551 16.8421 306.842V321.579C16.8421 322.451 16.1352 323.158 15.2632 323.158C14.3911 323.158 13.6842 322.451 13.6842 321.579V306.842C13.6842 304.807 15.3337 303.158 17.3684 303.158H45.2632C46.1352 303.158 46.8421 303.865 46.8421 304.737C46.8421 305.609 46.1352 306.316 45.2632 306.316H17.3684Z" fill="white"/>
<path fill-rule="evenodd" clip-rule="evenodd" d="M64.2105 304.737C64.2105 303.865 64.9174 303.158 65.7895 303.158H159.474C160.346 303.158 161.053 303.865 161.053 304.737C161.053 305.609 160.346 306.316 159.474 306.316H65.7895C64.9174 306.316 64.2105 305.609 64.2105 304.737Z" fill="white"/>
</svg>
