<svg width="229" height="98" viewBox="0 0 229 98" fill="none" xmlns="http://www.w3.org/2000/svg">
<path d="M0 76C0 76 23.5 52 114.5 56C205.5 60 229 76 229 76V22.8474C229 21.0454 228.196 19.3636 226.646 18.4456C218.706 13.7449 189.11 -7.62939e-06 114.5 -7.62939e-06C39.8897 -7.62939e-06 10.294 13.7449 2.35413 18.4456C0.803554 19.3636 0 21.0454 0 22.8474V76Z" fill="black"/>
<path d="M0 76C0 76 23.5 52 114.5 56C205.5 60 229 76 229 76V22.8474C229 21.0454 228.196 19.3636 226.646 18.4456C218.706 13.7449 189.11 -7.62939e-06 114.5 -7.62939e-06C39.8897 -7.62939e-06 10.294 13.7449 2.35413 18.4456C0.803554 19.3636 0 21.0454 0 22.8474V76Z" fill="black"/>
<path d="M0 22C0 22 23.5 46 114.5 42C205.5 38 229 22 229 22V78C229 78 204.5 98 114.5 98C24.5 98 0 78 0 78V22Z" fill="url(#paint0_linear_8_40)"/>
<path d="M0 22C0 22 23.5 46 114.5 42C205.5 38 229 22 229 22V78C229 78 204.5 98 114.5 98C24.5 98 0 78 0 78V22Z" fill="url(#paint1_linear_8_40)"/>
<defs>
<linearGradient id="paint0_linear_8_40" x1="5.041e-07" y1="48.5" x2="229" y2="55" gradientUnits="userSpaceOnUse">
<stop stop-color="#242424"/>
<stop offset="0.503125" stop-color="#494949"/>
<stop offset="1" stop-color="#242424"/>
</linearGradient>
<linearGradient id="paint1_linear_8_40" x1="5.041e-07" y1="48.5" x2="229" y2="55" gradientUnits="userSpaceOnUse">
<stop stop-color="#242424"/>
<stop offset="0.503125" stop-color="#494949"/>
<stop offset="1" stop-color="#242424"/>
</linearGradient>
</defs>
</svg>
