<svg width="265" height="515" viewBox="0 0 265 515" fill="none" xmlns="http://www.w3.org/2000/svg">
<g filter="url(#filter0_d_3_24)">
<path fill-rule="evenodd" clip-rule="evenodd" d="M247 14H18V493H247V467.159C228.971 478.012 209.215 484 188.5 484C154.06 484 93.6102 477.449 68 449.5C56.1195 436.535 55.4587 417.666 54.7512 397.462C54.2542 383.272 53.7342 368.424 49.2882 354.5C44.5066 339.525 53.8816 327.867 63.9477 315.349C73.183 303.864 83 291.656 83 275.5C83 260.048 74.02 241.715 65.1576 223.622C54.6539 202.179 44.3155 181.073 49.2882 165.5C56.0096 144.45 72.236 134.709 88.4031 125.004C98.1572 119.148 107.89 113.305 115.5 105C123.281 96.5082 129.894 86.8069 136.295 77.4149C150.963 55.8954 164.524 36 188.5 36C209.215 36 228.971 41.9876 247 52.8415V14Z" fill="url(#paint0_linear_3_24)"/>
</g>
<defs>
<filter id="filter0_d_3_24" x="0" y="0" width="265" height="515" filterUnits="userSpaceOnUse" color-interpolation-filters="sRGB">
<feFlood flood-opacity="0" result="BackgroundImageFix"/>
<feColorMatrix in="SourceAlpha" type="matrix" values="0 0 0 0 0 0 0 0 0 0 0 0 0 0 0 0 0 0 127 0" result="hardAlpha"/>
<feOffset dy="4"/>
<feGaussianBlur stdDeviation="9"/>
<feComposite in2="hardAlpha" operator="out"/>
<feColorMatrix type="matrix" values="0 0 0 0 0 0 0 0 0 0 0 0 0 0 0 0 0 0 0.25 0"/>
<feBlend mode="normal" in2="BackgroundImageFix" result="effect1_dropShadow_3_24"/>
<feBlend mode="normal" in="SourceGraphic" in2="effect1_dropShadow_3_24" result="shape"/>
</filter>
<linearGradient id="paint0_linear_3_24" x1="18" y1="139.5" x2="247" y2="139.5" gradientUnits="userSpaceOnUse">
<stop stop-color="#9C9D97"/>
<stop offset="0.0001" stop-color="#94938C"/>
<stop offset="0.26875" stop-color="#DBD8D3"/>
<stop offset="0.492708" stop-color="#FCFCFC"/>
<stop offset="0.727083" stop-color="#DBD8D3"/>
<stop offset="1" stop-color="#8C8981"/>
</linearGradient>
</defs>
</svg>
